<?xml version="1.0" encoding="UTF-8" standalone="no"?>
<!-- Generator: Gravit.io -->
<svg xmlns="http://www.w3.org/2000/svg" xmlns:xlink="http://www.w3.org/1999/xlink" style="isolation:isolate" viewBox="641.047 255.547 42.906 43.906" width="42.906pt" height="43.906pt"><path d=" M 658.047 255.547 C 648.668 255.547 641.047 263.168 641.047 272.547 C 641.047 281.926 648.668 289.547 658.047 289.547 C 661.757 289.547 665.187 288.352 667.985 286.328 L 681.141 299.453 L 683.953 296.641 L 670.953 283.609 C 673.6 280.532 675.053 276.606 675.047 272.547 C 675.047 263.168 667.426 255.547 658.047 255.547 Z  M 658.047 257.547 C 666.344 257.547 673.047 264.25 673.047 272.547 C 673.047 280.844 666.344 287.547 658.047 287.547 C 649.75 287.547 643.047 280.844 643.047 272.547 C 643.047 264.25 649.75 257.547 658.047 257.547 Z " fill="rgb(255,255,255)"/></svg>