<?xml version="1.0" encoding="UTF-8" standalone="no"?>
<!-- Generator: Gravit.io -->
<svg xmlns="http://www.w3.org/2000/svg" xmlns:xlink="http://www.w3.org/1999/xlink" style="isolation:isolate" viewBox="629 276.547 70.666 44.453" width="70.666pt" height="44.453pt"><path d=" M 688.542 295.925 C 688.553 295.654 688.564 295.388 688.564 295.129 C 688.564 284.883 680.221 276.547 669.975 276.547 C 662.897 276.547 656.432 280.637 653.33 286.909 C 651.712 285.84 649.814 285.272 647.875 285.276 C 642.669 285.281 638.354 289.311 637.993 294.505 C 632.649 296.451 629 301.58 629 307.337 C 629 314.866 635.134 321 642.67 321 L 687.084 321 C 694.024 321 699.666 315.358 699.666 308.419 C 699.666 301.975 694.797 296.649 688.542 295.925 Z " fill="rgb(255,255,255)"/></svg>