<?xml version="1.0" encoding="UTF-8" standalone="no"?>
<!-- Generator: Gravit.io -->
<svg xmlns="http://www.w3.org/2000/svg" xmlns:xlink="http://www.w3.org/1999/xlink" style="isolation:isolate" viewBox="605 273 94.666 48" width="94.666pt" height="48pt"><g><path d=" M 627 273 L 627 279 L 631 279 L 631 273 L 627 273 Z  M 613.445 278.617 L 610.617 281.445 L 614.859 285.688 L 617.688 282.859 L 613.445 278.617 Z  M 644.555 278.617 L 640.313 282.859 L 643.141 285.688 L 647.383 281.445 L 644.555 278.617 Z  M 629 283 C 621.293 283 615 289.293 615 297 C 615 304.707 621.293 311 629 311 C 636.707 311 643 304.707 643 297 C 643 289.293 636.707 283 629 283 Z  M 629 287 C 634.547 287 639 291.453 639 297 C 639 302.547 634.547 307 629 307 C 623.453 307 619 302.547 619 297 C 619 291.453 623.453 287 629 287 Z  M 605 295 L 605 299 L 611 299 L 611 295 L 605 295 Z  M 647 295 L 647 299 L 653 299 L 653 295 L 647 295 Z  M 614.859 308.313 L 610.617 312.555 L 613.445 315.383 L 617.688 311.141 L 614.859 308.313 Z  M 643.141 308.313 L 640.313 311.141 L 644.555 315.383 L 647.383 312.555 L 643.141 308.313 Z  M 627 315 L 627 321 L 631 321 L 631 315 L 627 315 Z " fill="rgb(255,255,255)"/></g><path d=" M 688.542 295.925 C 688.553 295.654 688.564 295.388 688.564 295.129 C 688.564 284.883 680.221 276.547 669.975 276.547 C 662.897 276.547 656.432 280.637 653.33 286.909 C 651.712 285.84 649.814 285.272 647.875 285.276 C 642.669 285.281 638.354 289.311 637.993 294.505 C 632.649 296.451 629 301.58 629 307.337 C 629 314.866 635.134 321 642.67 321 L 687.084 321 C 694.024 321 699.666 315.358 699.666 308.419 C 699.666 301.975 694.797 296.649 688.542 295.925 Z " fill="rgb(255,255,255)"/></svg>