<?xml version="1.0" encoding="UTF-8" standalone="no"?>
<!-- Generator: Gravit.io -->
<svg xmlns="http://www.w3.org/2000/svg" xmlns:xlink="http://www.w3.org/1999/xlink" style="isolation:isolate" viewBox="710 348 66.5 48" width="66.5pt" height="48pt"><g><g><path d=" M 732 348 L 732 354 L 736 354 L 736 348 L 732 348 Z  M 718.445 353.617 L 715.617 356.445 L 719.859 360.688 L 722.688 357.859 L 718.445 353.617 Z  M 749.555 353.617 L 745.313 357.859 L 748.141 360.688 L 752.383 356.445 L 749.555 353.617 Z  M 734 358 C 726.293 358 720 364.293 720 372 C 720 379.707 726.293 386 734 386 C 741.707 386 748 379.707 748 372 C 748 364.293 741.707 358 734 358 Z  M 734 362 C 739.547 362 744 366.453 744 372 C 744 377.547 739.547 382 734 382 C 728.453 382 724 377.547 724 372 C 724 366.453 728.453 362 734 362 Z  M 710 370 L 710 374 L 716 374 L 716 370 L 710 370 Z  M 752 370 L 752 374 L 758 374 L 758 370 L 752 370 Z  M 719.859 383.313 L 715.617 387.555 L 718.445 390.383 L 722.688 386.141 L 719.859 383.313 Z  M 748.141 383.313 L 745.313 386.141 L 749.555 390.383 L 752.383 387.555 L 748.141 383.313 Z  M 732 390 L 732 396 L 736 396 L 736 390 L 732 390 Z " fill="rgb(255,255,255)"/></g><path d=" M 769.665 375.269 C 769.672 375.102 769.679 374.939 769.679 374.78 C 769.679 368.484 764.553 363.362 758.257 363.362 C 753.908 363.362 749.936 365.875 748.03 369.729 C 747.036 369.072 745.87 368.723 744.679 368.726 C 741.48 368.729 738.829 371.205 738.607 374.396 C 735.324 375.592 733.082 378.743 733.082 382.28 C 733.082 386.906 736.85 390.675 741.481 390.675 L 768.769 390.675 C 773.033 390.675 776.5 387.209 776.5 382.945 C 776.5 378.986 773.508 375.713 769.665 375.269 Z " fill="rgb(255,255,255)"/></g></svg>