<?xml version="1.0" encoding="UTF-8" standalone="no"?>
<!-- Generator: Gravit.io -->
<svg xmlns="http://www.w3.org/2000/svg" xmlns:xlink="http://www.w3.org/1999/xlink" style="isolation:isolate" viewBox="583.076 99.094 361.581 511.999" width="361.581pt" height="511.999pt">
    <style>
      #rotor { 
        animation: spin 6s infinite linear;
        transform-origin: center center;
        transform-box: fill-box;
      }
      @keyframes spin {
        from { transform: rotate(0deg) translateX(0) translateY(0) }
        10% { transform: rotate(36deg) translateX(25px) translateY(-6px) }
        20% { transform: rotate(72deg) translateX(43px) translateY(-30px) }
        30% { transform: rotate(108deg) translateX(44px) translateY(-55px) }
        40% { transform: rotate(144deg) translateX(29px) translateY(-82px) }
        50% { transform: rotate(180deg) translateX(2px) translateY(-82px) }
        60% { transform: rotate(216deg) translateX(-24px) translateY(-82px) }
        70% { transform: rotate(252deg) translateX(-44px) translateY(-59px) }
        80% { transform: rotate(288deg) translateX(-44px) translateY(-31px) }
        90% { transform: rotate(324deg) translateX(-27px) translateY(-10px) }
        to { transform: rotate(359deg) translateX(0) translateY(0) }
    }
   </style>
    <g>
        <g>
            <g>
                <g>
                    <path id="rotor" d=" M 608.689 419.094 C 613.16 419.094 617.572 417.908 621.113 415.86 L 763.859 342.26 L 906.255 415.672 C 910.146 417.908 914.566 419.094 919.038 419.094 C 928.16 419.094 936.668 414.196 941.225 406.294 C 948.274 394.066 944.075 378.381 932.205 371.529 L 797.088 284.711 L 789.459 124.694 C 789.459 110.58 777.973 99.094 763.859 99.094 C 749.745 99.094 738.259 110.58 738.268 124.293 L 730.631 284.711 L 595.863 371.324 C 583.643 378.381 579.445 394.065 586.502 406.294 C 591.059 414.187 599.567 419.094 608.689 419.094 Z  M 604.746 385.891 L 743.558 296.692 C 745.879 295.199 747.33 292.673 747.466 289.916 L 755.326 124.694 C 755.326 119.992 759.157 116.161 763.859 116.161 C 768.561 116.161 772.392 119.992 772.401 125.095 L 780.252 289.916 C 780.389 292.672 781.839 295.198 784.16 296.692 L 923.322 386.096 C 927.392 388.451 928.792 393.682 926.445 397.761 C 924.167 401.695 919.473 403.555 914.43 400.696 L 767.767 325.074 C 766.547 324.443 765.198 324.127 763.859 324.127 C 762.52 324.127 761.171 324.443 759.951 325.074 L 612.939 400.884 C 608.954 403.188 603.561 401.695 601.282 397.761 C 598.927 393.682 600.326 388.451 604.746 385.891 Z " fill="rgb(255,255,255)"/>
                    <path d=" M 764.115 312.427 C 768.834 312.427 772.648 308.604 772.648 303.894 C 772.648 299.184 768.834 295.361 764.115 295.361 L 764.03 295.361 C 759.32 295.361 755.539 299.184 755.539 303.894 C 755.539 308.604 759.405 312.427 764.115 312.427 Z " fill="rgb(255,255,255)"/>
                    <path d=" M 797.967 601.852 C 789.562 500.988 789.459 373.432 789.459 372.16 C 789.459 367.45 785.636 363.627 780.926 363.627 C 776.216 363.627 772.393 367.45 772.393 372.16 C 772.393 373.406 772.487 494.084 780.218 594.027 L 747.509 594.027 C 755.232 494.085 755.326 373.406 755.326 372.16 C 755.326 367.45 751.503 363.627 746.793 363.627 C 742.083 363.627 738.26 367.45 738.26 372.16 C 738.26 373.397 738.166 494.502 730.384 594.027 L 730.384 594.027 C 725.674 594.027 726 597.849 726 602.559 C 726 607.269 725.921 610.214 730.631 610.214 L 789.459 611.093 C 789.698 611.093 789.928 611.085 790.167 611.067 C 790.636 611.024 791.02 610.794 791.456 610.692 C 792.019 610.547 792.574 610.462 793.086 610.214 C 793.581 609.984 793.991 609.634 794.434 609.309 C 794.869 608.985 795.321 608.703 795.697 608.294 C 796.064 607.893 796.311 607.415 796.602 606.954 C 796.892 606.485 797.199 606.058 797.396 605.537 C 797.592 605.008 797.635 604.445 797.729 603.873 C 797.806 603.429 797.994 603.028 797.994 602.559 C 797.994 602.431 797.926 602.329 797.926 602.209 C 797.916 602.083 797.975 601.98 797.967 601.852 Z " fill="rgb(255,255,255)"/>
                </g>
            </g>
        </g>
    </g>
</svg>