<?xml version="1.0" encoding="UTF-8" standalone="no"?>
<!-- Generator: Gravit.io -->
<svg xmlns="http://www.w3.org/2000/svg" xmlns:xlink="http://www.w3.org/1999/xlink" style="isolation:isolate" viewBox="461.374 215.423 145.626 145.318" width="145.626pt" height="145.318pt"><path d=" M 531.029 215.423 C 530.928 215.45 530.829 215.483 530.733 215.521 L 530.44 215.521 C 529.585 215.662 528.833 216.165 528.374 216.9 L 499.442 248.675 L 467.173 216.405 C 466.472 215.715 465.49 215.388 464.515 215.521 C 462.93 215.717 461.745 217.072 461.76 218.669 L 461.76 289.512 C 461.332 290.3 461.256 291.234 461.553 292.081 C 461.858 292.918 462.497 293.592 463.335 293.939 L 494.918 322.669 L 462.645 354.942 C 461.719 355.846 461.438 357.223 461.938 358.417 C 462.437 359.611 463.615 360.379 464.909 360.354 L 535.751 360.354 C 536.539 360.785 537.474 360.858 538.321 360.562 C 539.158 360.256 539.832 359.617 540.178 358.78 L 568.909 327.197 L 601.181 359.469 C 602.085 360.396 603.463 360.676 604.657 360.177 C 605.851 359.677 606.619 358.499 606.594 357.206 L 606.594 286.363 C 607.025 285.589 607.123 284.663 606.839 283.816 C 606.554 282.976 605.929 282.294 605.117 281.936 L 605.02 281.936 L 573.436 253.206 L 605.709 220.933 C 606.635 220.029 606.916 218.651 606.416 217.458 C 605.917 216.264 604.739 215.496 603.445 215.521 L 531.325 215.521 C 531.228 215.483 531.129 215.45 531.029 215.423 Z  M 533.588 221.818 L 595.772 221.818 L 566.843 250.747 C 566.733 250.832 566.633 250.93 566.547 251.04 L 535.26 282.229 C 534.3 279.402 533.081 275.145 532.112 269.44 C 530.254 258.47 529.429 242.381 533.585 221.818 L 533.588 221.818 Z  M 468.058 226.345 L 496.788 254.975 C 496.923 255.196 497.097 255.394 497.279 255.567 L 528.57 286.854 C 525.827 287.802 521.693 288.983 515.679 290.003 C 504.71 291.86 488.621 292.685 468.058 288.529 L 468.058 226.345 Z  M 526.01 228.902 C 523.403 246.317 524.202 260.325 525.912 270.425 C 526.281 272.576 526.662 274.518 527.093 276.329 L 503.97 253.206 L 526.01 228.902 Z  M 568.909 257.73 L 593.212 279.77 C 586.826 278.804 580.385 278.245 573.928 278.098 C 571.739 278.06 569.646 278.035 567.63 278.098 C 562.287 278.254 556.96 278.78 551.689 279.672 C 549.539 280.041 547.596 280.422 545.786 280.853 L 568.909 257.73 Z  M 567.829 284.395 C 576.878 284.112 587.753 284.814 600.297 287.349 L 600.297 349.533 L 571.566 320.9 C 571.43 320.681 571.265 320.482 571.075 320.308 L 539.882 289.02 C 542.713 288.06 546.967 286.842 552.675 285.872 C 557.687 285.039 562.75 284.546 567.829 284.395 L 567.829 284.395 Z  M 533.094 293.646 C 534.054 296.473 535.273 300.73 536.243 306.435 C 538.1 317.405 538.925 333.494 534.769 354.057 L 472.585 354.057 L 501.709 324.933 L 501.804 324.835 L 533.094 293.646 Z  M 522.666 294.924 L 499.445 318.145 L 475.142 296.105 C 492.556 298.712 506.564 297.912 516.665 296.202 C 518.866 295.834 520.821 295.352 522.666 294.924 Z  M 541.261 299.546 L 564.384 322.669 L 542.344 346.973 C 544.951 329.558 544.152 315.55 542.442 305.45 C 542.074 303.299 541.693 301.357 541.261 299.546 Z " fill="rgb(255,255,255)"/></svg>